<?xml version="1.0" encoding="UTF-8" standalone="no"?>
<!DOCTYPE svg PUBLIC "-//W3C//DTD SVG 1.1//EN" "http://www.w3.org/Graphics/SVG/1.1/DTD/svg11.dtd">
<svg width="100%" height="100%" viewBox="0 0 2606 766" version="1.1" xmlns="http://www.w3.org/2000/svg" xmlns:xlink="http://www.w3.org/1999/xlink" xml:space="preserve" xmlns:serif="http://www.serif.com/" style="fill-rule:evenodd;clip-rule:evenodd;stroke-linejoin:round;stroke-miterlimit:2;">
    <g transform="matrix(1,0,0,1,-1994.1,-1092.37)">
        <g transform="matrix(1,0,0,1,-125.075,-1426.7)">
            <g transform="matrix(2.70448,0,0,2.70448,-3612.1,-4285.36)">
                <g transform="matrix(13.1914,0,0,13.1914,-2466.39,-7311.66)">
                    <path d="M366.631,755.401C366.679,755.289 366.739,755.233 366.811,755.233C366.851,755.233 366.887,755.251 366.919,755.287C366.951,755.323 366.967,755.365 366.967,755.413C366.967,755.453 366.963,755.481 366.955,755.497C366.827,755.745 366.673,756.029 366.493,756.349C366.313,756.669 366.111,756.967 365.887,757.243C365.663,757.519 365.413,757.753 365.137,757.945C364.861,758.137 364.563,758.233 364.243,758.233C364.083,758.233 363.923,758.207 363.763,758.155C363.603,758.103 363.459,758.025 363.331,757.921C363.203,757.817 363.097,757.693 363.013,757.549C362.929,757.405 362.879,757.245 362.863,757.069C362.631,757.373 362.347,757.641 362.011,757.873C361.675,758.105 361.315,758.221 360.931,758.221C360.707,758.221 360.511,758.179 360.343,758.095C360.175,758.011 360.033,757.899 359.917,757.759C359.801,757.619 359.715,757.455 359.659,757.267C359.603,757.079 359.575,756.881 359.575,756.673C359.575,756.385 359.633,756.029 359.749,755.605C359.865,755.181 360.047,754.771 360.295,754.375C360.543,753.979 360.861,753.641 361.249,753.361C361.637,753.081 362.103,752.941 362.647,752.941C362.719,752.941 362.817,752.947 362.941,752.959C363.065,752.971 363.191,753.005 363.319,753.061C363.447,753.117 363.563,753.203 363.667,753.319C363.771,753.435 363.831,753.597 363.847,753.805L363.859,753.997L363.907,753.877C364.011,753.613 364.073,753.395 364.093,753.223C364.113,753.051 364.123,752.957 364.123,752.941C364.363,752.941 364.559,752.961 364.711,753.001C364.863,753.041 364.983,753.093 365.071,753.157C365.159,753.221 365.221,753.295 365.257,753.379C365.293,753.463 365.311,753.553 365.311,753.649C365.311,753.801 365.279,753.953 365.215,754.105C365.135,754.329 365.055,754.539 364.975,754.735C364.895,754.931 364.815,755.121 364.735,755.305C364.575,755.673 364.439,756.011 364.327,756.319C364.215,756.627 364.159,756.929 364.159,757.225L364.159,757.321C364.159,757.457 364.195,757.563 364.267,757.639C364.339,757.715 364.435,757.753 364.555,757.753C364.699,757.753 364.847,757.701 364.999,757.597C365.151,757.493 365.301,757.361 365.449,757.201C365.597,757.041 365.737,756.867 365.869,756.679C366.001,756.491 366.121,756.309 366.229,756.133C366.337,755.957 366.425,755.803 366.493,755.671C366.561,755.539 366.607,755.449 366.631,755.401ZM363.079,753.313C362.895,753.313 362.711,753.383 362.527,753.523C362.343,753.663 362.171,753.847 362.011,754.075C361.851,754.303 361.703,754.557 361.567,754.837C361.431,755.117 361.315,755.395 361.219,755.671C361.123,755.947 361.047,756.209 360.991,756.457C360.935,756.705 360.907,756.905 360.907,757.057C360.907,757.217 360.943,757.373 361.015,757.525C361.087,757.677 361.223,757.753 361.423,757.753C361.575,757.753 361.729,757.703 361.885,757.603C362.041,757.503 362.187,757.383 362.323,757.243C362.459,757.103 362.583,756.957 362.695,756.805C362.807,756.653 362.895,756.525 362.959,756.421L363.463,755.053C363.535,754.861 363.581,754.691 363.601,754.543C363.621,754.395 363.631,754.269 363.631,754.165C363.631,753.949 363.593,753.753 363.517,753.577C363.441,753.401 363.295,753.313 363.079,753.313Z" style="fill-rule:nonzero;"/>
                    <path d="M370.759,755.941C370.719,755.949 370.675,755.953 370.627,755.953C370.587,755.961 370.537,755.967 370.477,755.971C370.417,755.975 370.355,755.977 370.291,755.977C370.187,755.977 370.081,755.971 369.973,755.959C369.865,755.947 369.767,755.917 369.679,755.869C369.591,755.821 369.519,755.755 369.463,755.671C369.407,755.587 369.379,755.473 369.379,755.329C369.379,755.193 369.401,755.041 369.445,754.873C369.489,754.705 369.543,754.545 369.607,754.393C369.671,754.217 369.743,754.037 369.823,753.853C369.791,753.853 369.709,753.919 369.577,754.051C369.445,754.183 369.287,754.357 369.103,754.573C368.919,754.789 368.719,755.041 368.503,755.329C368.287,755.617 368.079,755.921 367.879,756.241C367.679,756.561 367.497,756.891 367.333,757.231C367.169,757.571 367.043,757.901 366.955,758.221C366.755,758.221 366.589,758.197 366.457,758.149C366.325,758.101 366.221,758.035 366.145,757.951C366.069,757.867 366.015,757.771 365.983,757.663C365.951,757.555 365.935,757.441 365.935,757.321C365.935,757.201 365.947,757.083 365.971,756.967C365.995,756.851 366.027,756.741 366.067,756.637C366.091,756.557 366.145,756.401 366.229,756.169C366.313,755.937 366.405,755.673 366.505,755.377C366.605,755.081 366.703,754.781 366.799,754.477C366.895,754.173 366.971,753.913 367.027,753.697C367.067,753.553 367.093,753.423 367.105,753.307C367.117,753.191 367.123,753.061 367.123,752.917C367.427,752.901 367.669,752.919 367.849,752.971C368.029,753.023 368.167,753.091 368.263,753.175C368.359,753.259 368.421,753.349 368.449,753.445C368.477,753.541 368.491,753.625 368.491,753.697C368.491,753.745 368.489,753.785 368.485,753.817C368.481,753.849 368.479,753.873 368.479,753.889C368.455,754.025 368.389,754.229 368.281,754.501C368.173,754.773 368.047,755.077 367.903,755.413C368.119,755.085 368.351,754.773 368.599,754.477C368.847,754.181 369.091,753.917 369.331,753.685C369.571,753.453 369.805,753.269 370.033,753.133C370.261,752.997 370.467,752.929 370.651,752.929C370.803,752.929 370.943,752.973 371.071,753.061C371.199,753.149 371.263,753.273 371.263,753.433C371.263,753.529 371.237,753.663 371.185,753.835C371.133,754.007 371.075,754.193 371.011,754.393C370.931,754.633 370.857,754.873 370.789,755.113C370.721,755.353 370.687,755.553 370.687,755.713C370.687,755.817 370.711,755.893 370.759,755.941Z" style="fill-rule:nonzero;"/>
                    <path d="M377.599,755.437C377.519,755.605 377.407,755.805 377.263,756.037C377.119,756.269 376.939,756.503 376.723,756.739C376.507,756.975 376.253,757.199 375.961,757.411C375.669,757.623 375.335,757.793 374.959,757.921C374.743,758.417 374.517,758.889 374.281,759.337C374.045,759.785 373.803,760.169 373.555,760.489C373.355,760.753 373.137,760.945 372.901,761.065C372.665,761.185 372.439,761.245 372.223,761.245C371.935,761.245 371.689,761.153 371.485,760.969C371.281,760.785 371.179,760.525 371.179,760.189C371.179,759.901 371.259,759.641 371.419,759.409C371.579,759.177 371.779,758.973 372.019,758.797C372.259,758.621 372.519,758.467 372.799,758.335C373.079,758.203 373.339,758.093 373.579,758.005L373.951,757.021C373.751,757.229 373.525,757.397 373.273,757.525C373.021,757.653 372.751,757.717 372.463,757.717C372.135,757.717 371.849,757.625 371.605,757.441C371.361,757.257 371.219,756.977 371.179,756.601C371.163,756.425 371.175,756.211 371.215,755.959C371.255,755.707 371.321,755.445 371.413,755.173C371.505,754.901 371.629,754.633 371.785,754.369C371.941,754.105 372.127,753.867 372.343,753.655C372.559,753.443 372.807,753.271 373.087,753.139C373.367,753.007 373.679,752.941 374.023,752.941C374.087,752.941 374.177,752.947 374.293,752.959C374.409,752.971 374.523,753.001 374.635,753.049C374.747,753.097 374.849,753.171 374.941,753.271C375.033,753.371 375.091,753.509 375.115,753.685L375.127,753.709L375.151,753.613C375.191,753.485 375.215,753.379 375.223,753.295C375.231,753.211 375.235,753.145 375.235,753.097L375.235,753.019C375.235,752.991 375.231,752.969 375.223,752.953L375.523,752.953C375.883,752.953 376.133,752.999 376.273,753.091C376.413,753.183 376.483,753.309 376.483,753.469C376.483,753.581 376.455,753.745 376.399,753.961C376.343,754.177 376.273,754.417 376.189,754.681C376.105,754.945 376.013,755.219 375.913,755.503C375.813,755.787 375.713,756.059 375.613,756.319C375.513,756.579 375.423,756.809 375.343,757.009C375.263,757.209 375.203,757.357 375.163,757.453C375.491,757.309 375.781,757.119 376.033,756.883C376.285,756.647 376.501,756.411 376.681,756.175C376.861,755.939 377.001,755.731 377.101,755.551C377.201,755.371 377.259,755.261 377.275,755.221C377.323,755.109 377.387,755.053 377.467,755.053C377.523,755.053 377.569,755.073 377.605,755.113C377.641,755.153 377.659,755.201 377.659,755.257C377.659,755.273 377.657,755.291 377.653,755.311C377.649,755.331 377.631,755.373 377.599,755.437ZM374.287,753.253C374.119,753.253 373.955,753.317 373.795,753.445C373.635,753.573 373.485,753.739 373.345,753.943C373.205,754.147 373.077,754.377 372.961,754.633C372.845,754.889 372.745,755.143 372.661,755.395C372.577,755.647 372.511,755.885 372.463,756.109C372.415,756.333 372.391,756.517 372.391,756.661C372.391,756.813 372.425,756.961 372.493,757.105C372.561,757.249 372.687,757.321 372.871,757.321C373.015,757.321 373.159,757.273 373.303,757.177C373.447,757.081 373.583,756.965 373.711,756.829C373.839,756.693 373.957,756.551 374.065,756.403C374.173,756.255 374.255,756.133 374.311,756.037L374.863,754.489C374.887,754.353 374.899,754.237 374.899,754.141C374.899,754.045 374.887,753.945 374.863,753.841C374.839,753.737 374.803,753.641 374.755,753.553C374.707,753.465 374.645,753.393 374.569,753.337C374.493,753.281 374.399,753.253 374.287,753.253ZM373.399,758.461C373.175,758.557 372.957,758.665 372.745,758.785C372.533,758.905 372.345,759.037 372.181,759.181C372.017,759.325 371.887,759.485 371.791,759.661C371.695,759.837 371.647,760.033 371.647,760.249C371.647,760.425 371.679,760.551 371.743,760.627C371.807,760.703 371.887,760.741 371.983,760.741C372.159,760.741 372.323,760.641 372.475,760.441C372.579,760.297 372.711,760.049 372.871,759.697C373.031,759.345 373.207,758.933 373.399,758.461Z" style="fill-rule:nonzero;"/>
                    <path d="M383.815,755.401C383.863,755.289 383.923,755.233 383.995,755.233C384.035,755.233 384.071,755.251 384.103,755.287C384.135,755.323 384.151,755.365 384.151,755.413C384.151,755.453 384.147,755.481 384.139,755.497C384.011,755.745 383.857,756.029 383.677,756.349C383.497,756.669 383.295,756.967 383.071,757.243C382.847,757.519 382.597,757.753 382.321,757.945C382.045,758.137 381.747,758.233 381.427,758.233C381.267,758.233 381.107,758.207 380.947,758.155C380.787,758.103 380.643,758.025 380.515,757.921C380.387,757.817 380.281,757.693 380.197,757.549C380.113,757.405 380.063,757.245 380.047,757.069C379.815,757.373 379.531,757.641 379.195,757.873C378.859,758.105 378.499,758.221 378.115,758.221C377.891,758.221 377.695,758.179 377.527,758.095C377.359,758.011 377.217,757.899 377.101,757.759C376.985,757.619 376.899,757.455 376.843,757.267C376.787,757.079 376.759,756.881 376.759,756.673C376.759,756.385 376.817,756.029 376.933,755.605C377.049,755.181 377.231,754.771 377.479,754.375C377.727,753.979 378.045,753.641 378.433,753.361C378.821,753.081 379.287,752.941 379.831,752.941C379.903,752.941 380.001,752.947 380.125,752.959C380.249,752.971 380.375,753.005 380.503,753.061C380.631,753.117 380.747,753.203 380.851,753.319C380.955,753.435 381.015,753.597 381.031,753.805L381.043,753.997L381.091,753.877C381.195,753.613 381.257,753.395 381.277,753.223C381.297,753.051 381.307,752.957 381.307,752.941C381.547,752.941 381.743,752.961 381.895,753.001C382.047,753.041 382.167,753.093 382.255,753.157C382.343,753.221 382.405,753.295 382.441,753.379C382.477,753.463 382.495,753.553 382.495,753.649C382.495,753.801 382.463,753.953 382.399,754.105C382.319,754.329 382.239,754.539 382.159,754.735C382.079,754.931 381.999,755.121 381.919,755.305C381.759,755.673 381.623,756.011 381.511,756.319C381.399,756.627 381.343,756.929 381.343,757.225L381.343,757.321C381.343,757.457 381.379,757.563 381.451,757.639C381.523,757.715 381.619,757.753 381.739,757.753C381.883,757.753 382.031,757.701 382.183,757.597C382.335,757.493 382.485,757.361 382.633,757.201C382.781,757.041 382.921,756.867 383.053,756.679C383.185,756.491 383.305,756.309 383.413,756.133C383.521,755.957 383.609,755.803 383.677,755.671C383.745,755.539 383.791,755.449 383.815,755.401ZM380.263,753.313C380.079,753.313 379.895,753.383 379.711,753.523C379.527,753.663 379.355,753.847 379.195,754.075C379.035,754.303 378.887,754.557 378.751,754.837C378.615,755.117 378.499,755.395 378.403,755.671C378.307,755.947 378.231,756.209 378.175,756.457C378.119,756.705 378.091,756.905 378.091,757.057C378.091,757.217 378.127,757.373 378.199,757.525C378.271,757.677 378.407,757.753 378.607,757.753C378.759,757.753 378.913,757.703 379.069,757.603C379.225,757.503 379.371,757.383 379.507,757.243C379.643,757.103 379.767,756.957 379.879,756.805C379.991,756.653 380.079,756.525 380.143,756.421L380.647,755.053C380.719,754.861 380.765,754.691 380.785,754.543C380.805,754.395 380.815,754.269 380.815,754.165C380.815,753.949 380.777,753.753 380.701,753.577C380.625,753.401 380.479,753.313 380.263,753.313Z" style="fill-rule:nonzero;"/>
                    <path d="M387.943,755.941C387.903,755.949 387.859,755.953 387.811,755.953C387.771,755.961 387.721,755.967 387.661,755.971C387.601,755.975 387.539,755.977 387.475,755.977C387.371,755.977 387.265,755.971 387.157,755.959C387.049,755.947 386.951,755.917 386.863,755.869C386.775,755.821 386.703,755.755 386.647,755.671C386.591,755.587 386.563,755.473 386.563,755.329C386.563,755.193 386.585,755.041 386.629,754.873C386.673,754.705 386.727,754.545 386.791,754.393C386.855,754.217 386.927,754.037 387.007,753.853C386.975,753.853 386.893,753.919 386.761,754.051C386.629,754.183 386.471,754.357 386.287,754.573C386.103,754.789 385.903,755.041 385.687,755.329C385.471,755.617 385.263,755.921 385.063,756.241C384.863,756.561 384.681,756.891 384.517,757.231C384.353,757.571 384.227,757.901 384.139,758.221C383.939,758.221 383.773,758.197 383.641,758.149C383.509,758.101 383.405,758.035 383.329,757.951C383.253,757.867 383.199,757.771 383.167,757.663C383.135,757.555 383.119,757.441 383.119,757.321C383.119,757.201 383.131,757.083 383.155,756.967C383.179,756.851 383.211,756.741 383.251,756.637C383.275,756.557 383.329,756.401 383.413,756.169C383.497,755.937 383.589,755.673 383.689,755.377C383.789,755.081 383.887,754.781 383.983,754.477C384.079,754.173 384.155,753.913 384.211,753.697C384.251,753.553 384.277,753.423 384.289,753.307C384.301,753.191 384.307,753.061 384.307,752.917C384.611,752.901 384.853,752.919 385.033,752.971C385.213,753.023 385.351,753.091 385.447,753.175C385.543,753.259 385.605,753.349 385.633,753.445C385.661,753.541 385.675,753.625 385.675,753.697C385.675,753.745 385.673,753.785 385.669,753.817C385.665,753.849 385.663,753.873 385.663,753.889C385.639,754.025 385.573,754.229 385.465,754.501C385.357,754.773 385.231,755.077 385.087,755.413C385.303,755.085 385.535,754.773 385.783,754.477C386.031,754.181 386.275,753.917 386.515,753.685C386.755,753.453 386.989,753.269 387.217,753.133C387.445,752.997 387.651,752.929 387.835,752.929C387.987,752.929 388.127,752.973 388.255,753.061C388.383,753.149 388.447,753.273 388.447,753.433C388.447,753.529 388.421,753.663 388.369,753.835C388.317,754.007 388.259,754.193 388.195,754.393C388.115,754.633 388.041,754.873 387.973,755.113C387.905,755.353 387.871,755.553 387.871,755.713C387.871,755.817 387.895,755.893 387.943,755.941Z" style="fill-rule:nonzero;"/>
                    <path d="M390.139,750.985C390.211,750.985 390.315,750.987 390.451,750.991C390.587,750.995 390.723,751.011 390.859,751.039C390.995,751.067 391.113,751.111 391.213,751.171C391.313,751.231 391.363,751.317 391.363,751.429C391.363,751.469 391.359,751.497 391.351,751.513C391.343,751.537 391.323,751.583 391.291,751.651C391.259,751.719 391.223,751.795 391.183,751.879C391.143,751.963 391.099,752.049 391.051,752.137C391.003,752.225 390.959,752.301 390.919,752.365C390.903,752.389 390.867,752.443 390.811,752.527C390.755,752.611 390.683,752.653 390.595,752.653C390.403,752.653 390.249,752.643 390.133,752.623C390.017,752.603 389.929,752.577 389.869,752.545C389.809,752.513 389.769,752.477 389.749,752.437C389.729,752.397 389.719,752.357 389.719,752.317C389.719,752.277 389.723,752.249 389.731,752.233C389.731,752.209 389.749,752.133 389.785,752.005C389.821,751.877 389.859,751.739 389.899,751.591C389.939,751.443 389.975,751.307 390.007,751.183C390.039,751.059 390.055,750.993 390.055,750.985L390.139,750.985ZM389.659,758.209C389.243,758.209 388.911,758.105 388.663,757.897C388.415,757.689 388.291,757.357 388.291,756.901C388.291,756.765 388.309,756.609 388.345,756.433C388.381,756.257 388.429,756.071 388.489,755.875C388.549,755.679 388.617,755.479 388.693,755.275C388.769,755.071 388.847,754.873 388.927,754.681C388.991,754.545 389.049,754.411 389.101,754.279C389.153,754.147 389.199,754.029 389.239,753.925C389.351,753.629 389.417,753.397 389.437,753.229C389.457,753.061 389.467,752.965 389.467,752.941C389.931,752.941 390.247,753.001 390.415,753.121C390.583,753.241 390.667,753.397 390.667,753.589C390.667,753.749 390.623,753.937 390.535,754.153L390.091,755.257C389.947,755.537 389.823,755.861 389.719,756.229C389.615,756.597 389.543,756.937 389.503,757.249C389.455,757.593 389.567,757.765 389.839,757.765C390.031,757.765 390.215,757.705 390.391,757.585C390.567,757.465 390.735,757.317 390.895,757.141C391.055,756.965 391.203,756.769 391.339,756.553C391.475,756.337 391.599,756.137 391.711,755.953C391.823,755.769 391.919,755.609 391.999,755.473C392.079,755.337 392.139,755.257 392.179,755.233C392.267,755.185 392.345,755.197 392.413,755.269C392.481,755.341 392.491,755.421 392.443,755.509C392.291,755.781 392.123,756.077 391.939,756.397C391.755,756.717 391.549,757.011 391.321,757.279C391.093,757.547 390.841,757.769 390.565,757.945C390.289,758.121 389.987,758.209 389.659,758.209Z" style="fill-rule:nonzero;"/>
                    <path d="M398.575,755.449C398.455,755.681 398.311,755.951 398.143,756.259C397.975,756.567 397.781,756.859 397.561,757.135C397.341,757.411 397.095,757.643 396.823,757.831C396.551,758.019 396.255,758.113 395.935,758.113C395.783,758.113 395.629,758.089 395.473,758.041C395.317,757.993 395.177,757.921 395.053,757.825C394.929,757.729 394.825,757.613 394.741,757.477C394.657,757.341 394.603,757.189 394.579,757.021C394.355,757.309 394.081,757.563 393.757,757.783C393.433,758.003 393.087,758.113 392.719,758.113C392.375,758.113 392.081,758.001 391.837,757.777C391.593,757.553 391.451,757.213 391.411,756.757C391.395,756.589 391.407,756.377 391.447,756.121C391.487,755.865 391.555,755.595 391.651,755.311C391.747,755.027 391.875,754.745 392.035,754.465C392.195,754.185 392.389,753.931 392.617,753.703C392.845,753.475 393.107,753.291 393.403,753.151C393.699,753.011 394.035,752.941 394.411,752.941C394.483,752.941 394.579,752.947 394.699,752.959C394.819,752.971 394.941,753.005 395.065,753.061C395.189,753.117 395.301,753.201 395.401,753.313C395.501,753.425 395.563,753.581 395.587,753.781L395.611,753.949L397.099,750.133C397.195,749.877 397.255,749.665 397.279,749.497C397.303,749.329 397.315,749.237 397.315,749.221C397.763,749.221 398.067,749.289 398.227,749.425C398.387,749.561 398.467,749.725 398.467,749.917C398.467,750.005 398.455,750.097 398.431,750.193C398.407,750.289 398.379,750.381 398.347,750.469L397.639,752.221C397.439,752.693 397.233,753.191 397.021,753.715C396.809,754.239 396.615,754.737 396.439,755.209C396.263,755.681 396.119,756.101 396.007,756.469C395.895,756.837 395.843,757.101 395.851,757.261C395.859,757.373 395.895,757.467 395.959,757.543C396.023,757.619 396.119,757.657 396.247,757.657C396.431,757.657 396.613,757.579 396.793,757.423C396.973,757.267 397.145,757.081 397.309,756.865C397.473,756.649 397.625,756.425 397.765,756.193C397.905,755.961 398.019,755.765 398.107,755.605L398.263,755.329C398.319,755.241 398.387,755.197 398.467,755.197C398.555,755.197 398.599,755.245 398.599,755.341C398.599,755.389 398.591,755.425 398.575,755.449ZM394.831,753.301C394.647,753.301 394.467,753.371 394.291,753.511C394.115,753.651 393.949,753.831 393.793,754.051C393.637,754.271 393.493,754.519 393.361,754.795C393.229,755.071 393.115,755.345 393.019,755.617C392.923,755.889 392.847,756.145 392.791,756.385C392.735,756.625 392.707,756.821 392.707,756.973C392.707,757.133 392.743,757.285 392.815,757.429C392.887,757.573 393.019,757.645 393.211,757.645C393.355,757.645 393.497,757.601 393.637,757.513C393.777,757.425 393.911,757.319 394.039,757.195C394.167,757.071 394.281,756.941 394.381,756.805C394.481,756.669 394.563,756.553 394.627,756.457L395.239,754.885C395.287,754.725 395.321,754.579 395.341,754.447C395.361,754.315 395.371,754.197 395.371,754.093C395.371,753.901 395.333,753.721 395.257,753.553C395.181,753.385 395.039,753.301 394.831,753.301Z" style="fill-rule:nonzero;"/>
                    <path d="M405.067,755.401C405.115,755.289 405.175,755.233 405.247,755.233C405.287,755.233 405.323,755.251 405.355,755.287C405.387,755.323 405.403,755.365 405.403,755.413C405.403,755.453 405.399,755.481 405.391,755.497C405.263,755.745 405.109,756.029 404.929,756.349C404.749,756.669 404.547,756.967 404.323,757.243C404.099,757.519 403.849,757.753 403.573,757.945C403.297,758.137 402.999,758.233 402.679,758.233C402.519,758.233 402.359,758.207 402.199,758.155C402.039,758.103 401.895,758.025 401.767,757.921C401.639,757.817 401.533,757.693 401.449,757.549C401.365,757.405 401.315,757.245 401.299,757.069C401.067,757.373 400.783,757.641 400.447,757.873C400.111,758.105 399.751,758.221 399.367,758.221C399.143,758.221 398.947,758.179 398.779,758.095C398.611,758.011 398.469,757.899 398.353,757.759C398.237,757.619 398.151,757.455 398.095,757.267C398.039,757.079 398.011,756.881 398.011,756.673C398.011,756.385 398.069,756.029 398.185,755.605C398.301,755.181 398.483,754.771 398.731,754.375C398.979,753.979 399.297,753.641 399.685,753.361C400.073,753.081 400.539,752.941 401.083,752.941C401.155,752.941 401.253,752.947 401.377,752.959C401.501,752.971 401.627,753.005 401.755,753.061C401.883,753.117 401.999,753.203 402.103,753.319C402.207,753.435 402.267,753.597 402.283,753.805L402.295,753.997L402.343,753.877C402.447,753.613 402.509,753.395 402.529,753.223C402.549,753.051 402.559,752.957 402.559,752.941C402.799,752.941 402.995,752.961 403.147,753.001C403.299,753.041 403.419,753.093 403.507,753.157C403.595,753.221 403.657,753.295 403.693,753.379C403.729,753.463 403.747,753.553 403.747,753.649C403.747,753.801 403.715,753.953 403.651,754.105C403.571,754.329 403.491,754.539 403.411,754.735C403.331,754.931 403.251,755.121 403.171,755.305C403.011,755.673 402.875,756.011 402.763,756.319C402.651,756.627 402.595,756.929 402.595,757.225L402.595,757.321C402.595,757.457 402.631,757.563 402.703,757.639C402.775,757.715 402.871,757.753 402.991,757.753C403.135,757.753 403.283,757.701 403.435,757.597C403.587,757.493 403.737,757.361 403.885,757.201C404.033,757.041 404.173,756.867 404.305,756.679C404.437,756.491 404.557,756.309 404.665,756.133C404.773,755.957 404.861,755.803 404.929,755.671C404.997,755.539 405.043,755.449 405.067,755.401ZM401.515,753.313C401.331,753.313 401.147,753.383 400.963,753.523C400.779,753.663 400.607,753.847 400.447,754.075C400.287,754.303 400.139,754.557 400.003,754.837C399.867,755.117 399.751,755.395 399.655,755.671C399.559,755.947 399.483,756.209 399.427,756.457C399.371,756.705 399.343,756.905 399.343,757.057C399.343,757.217 399.379,757.373 399.451,757.525C399.523,757.677 399.659,757.753 399.859,757.753C400.011,757.753 400.165,757.703 400.321,757.603C400.477,757.503 400.623,757.383 400.759,757.243C400.895,757.103 401.019,756.957 401.131,756.805C401.243,756.653 401.331,756.525 401.395,756.421L401.899,755.053C401.971,754.861 402.017,754.691 402.037,754.543C402.057,754.395 402.067,754.269 402.067,754.165C402.067,753.949 402.029,753.753 401.953,753.577C401.877,753.401 401.731,753.313 401.515,753.313Z" style="fill-rule:nonzero;"/>
                </g>
                <g transform="matrix(5.1061,0,0,5.1061,842.211,-1120.07)">
                    <path d="M352.891,755.881C352.891,756.569 352.629,757.155 352.105,757.639C351.581,758.123 350.951,758.365 350.215,758.365C349.783,758.365 349.267,758.233 348.667,757.969C348.507,757.897 348.387,757.861 348.307,757.861C348.211,757.861 348.151,757.977 348.127,758.209C348.119,758.329 348.067,758.389 347.971,758.389C347.891,758.389 347.851,758.341 347.851,758.245C347.851,758.181 347.855,758.133 347.863,758.101C347.927,757.613 347.959,757.161 347.959,756.745C347.959,756.665 347.951,756.441 347.935,756.073C347.927,756.025 347.923,755.961 347.923,755.881C347.923,755.761 347.971,755.701 348.067,755.701C348.147,755.701 348.203,755.797 348.235,755.989C348.443,757.413 349.119,758.125 350.263,758.125C350.751,758.125 351.129,757.987 351.397,757.711C351.665,757.435 351.799,757.045 351.799,756.541C351.799,756.093 351.669,755.711 351.409,755.395C351.149,755.079 350.703,754.765 350.071,754.453C349.311,754.077 348.783,753.713 348.487,753.361C348.191,753.009 348.043,752.573 348.043,752.053C348.043,751.389 348.257,750.841 348.685,750.409C349.113,749.977 349.655,749.761 350.311,749.761C350.583,749.761 350.959,749.853 351.439,750.037C351.607,750.101 351.731,750.133 351.811,750.133C351.899,750.133 351.957,750.117 351.985,750.085C352.013,750.053 352.039,749.969 352.063,749.833C352.079,749.753 352.123,749.713 352.195,749.713C352.275,749.713 352.315,749.761 352.315,749.857C352.315,749.921 352.311,749.969 352.303,750.001C352.279,750.193 352.267,750.425 352.267,750.697C352.267,751.081 352.287,751.385 352.327,751.609L352.339,751.801C352.347,751.889 352.311,751.933 352.231,751.933C352.143,751.933 352.083,751.841 352.051,751.657C351.963,751.185 351.755,750.791 351.427,750.475C351.099,750.159 350.731,750.001 350.323,750.001C349.923,750.001 349.605,750.129 349.369,750.385C349.133,750.641 349.015,750.989 349.015,751.429C349.015,751.941 349.187,752.353 349.531,752.665C349.723,752.841 350.139,753.089 350.779,753.409C351.531,753.785 352.071,754.167 352.399,754.555C352.727,754.943 352.891,755.385 352.891,755.881Z" style="fill-rule:nonzero;"/>
                    <path d="M364.951,758.137C364.951,758.209 364.891,758.245 364.771,758.245C364.691,758.245 364.619,758.241 364.555,758.233L363.031,758.209L361.507,758.233C361.451,758.241 361.391,758.245 361.327,758.245C361.167,758.245 361.087,758.205 361.087,758.125C361.087,758.037 361.195,757.993 361.411,757.993C362.115,757.985 362.467,757.913 362.467,757.777C362.467,757.769 362.459,757.737 362.443,757.681L362.347,757.357L362.287,757.189C362.215,756.941 362.039,756.393 361.759,755.545L359.191,755.545C358.711,756.825 358.471,757.561 358.471,757.753C358.471,757.865 358.519,757.933 358.615,757.957C358.639,757.965 358.839,757.981 359.215,758.005C359.447,758.013 359.563,758.053 359.563,758.125C359.563,758.205 359.459,758.245 359.251,758.245C358.883,758.245 358.455,758.229 357.967,758.197C357.847,758.189 357.723,758.185 357.595,758.185C357.467,758.185 357.343,758.193 357.223,758.209C357.159,758.217 357.107,758.221 357.067,758.221C356.955,758.221 356.899,758.185 356.899,758.113C356.899,758.041 357.025,758.001 357.277,757.993C357.529,757.985 357.711,757.947 357.823,757.879C357.935,757.811 358.023,757.681 358.087,757.489C359.119,754.545 359.959,752.181 360.607,750.397C360.623,750.301 360.655,750.193 360.703,750.073L360.763,749.857C360.787,749.769 360.819,749.725 360.859,749.725C360.883,749.725 360.903,749.749 360.919,749.797C361.023,750.109 361.259,750.761 361.627,751.753C361.915,752.529 362.631,754.477 363.775,757.597C363.839,757.773 363.921,757.885 364.021,757.933C364.121,757.981 364.327,758.009 364.639,758.017C364.847,758.025 364.951,758.065 364.951,758.137ZM361.687,755.269C361.559,754.909 361.347,754.313 361.051,753.481L360.475,751.837C360.139,752.717 359.735,753.861 359.263,755.269L361.687,755.269Z" style="fill-rule:nonzero;"/>
                    <path d="M375.019,757.273C375.019,757.481 375.007,757.825 374.983,758.305L374.851,758.305C374.803,758.305 374.687,758.297 374.503,758.281C374.319,758.265 374.111,758.257 373.879,758.257L368.887,758.221C368.751,758.221 368.683,758.185 368.683,758.113C368.683,758.057 368.791,758.021 369.007,758.005C369.311,757.989 369.493,757.955 369.553,757.903C369.613,757.851 369.643,757.701 369.643,757.453L369.643,750.709C369.643,750.413 369.613,750.241 369.553,750.193C369.493,750.145 369.279,750.121 368.911,750.121C368.759,750.121 368.683,750.077 368.683,749.989C368.683,749.917 368.731,749.881 368.827,749.881L368.935,749.881C369.199,749.905 369.723,749.917 370.507,749.917C370.579,749.917 370.719,749.911 370.927,749.899C371.135,749.887 371.307,749.881 371.443,749.881L371.575,749.881C371.719,749.881 371.791,749.921 371.791,750.001C371.791,750.049 371.769,750.079 371.725,750.091C371.681,750.103 371.543,750.113 371.311,750.121C371.079,750.129 370.941,750.167 370.897,750.235C370.853,750.303 370.831,750.513 370.831,750.865L370.831,757.945C371.047,757.953 371.347,757.957 371.731,757.957C372.667,757.957 373.327,757.909 373.711,757.813C374.095,757.717 374.355,757.537 374.491,757.273C374.627,757.009 374.707,756.653 374.731,756.205C374.739,756.101 374.787,756.049 374.875,756.049C374.979,756.049 375.027,756.109 375.019,756.229L375.007,756.529L375.007,756.637C375.015,756.693 375.019,756.749 375.019,756.805L375.019,757.273Z" style="fill-rule:nonzero;"/>
                    <path d="M387.211,754.105C387.211,755.297 386.853,756.305 386.137,757.129C385.421,757.953 384.543,758.365 383.503,758.365C382.399,758.365 381.471,757.947 380.719,757.111C379.967,756.275 379.591,755.245 379.591,754.021C379.591,752.773 379.953,751.751 380.677,750.955C381.401,750.159 382.327,749.761 383.455,749.761C384.519,749.761 385.411,750.177 386.131,751.009C386.851,751.841 387.211,752.873 387.211,754.105ZM385.867,754.165C385.867,752.701 385.567,751.561 384.967,750.745C384.591,750.233 384.067,749.977 383.395,749.977C382.755,749.977 382.259,750.173 381.907,750.565C381.259,751.285 380.935,752.457 380.935,754.081C380.935,755.369 381.161,756.369 381.613,757.081C382.065,757.793 382.699,758.149 383.515,758.149C384.275,758.149 384.847,757.813 385.231,757.141C385.655,756.397 385.867,755.405 385.867,754.165Z" style="fill-rule:nonzero;"/>
                    <path d="M399.367,750.001C399.367,750.081 399.267,750.117 399.067,750.109L398.803,750.097L398.587,750.097C398.459,750.097 398.383,750.119 398.359,750.163C398.335,750.207 398.323,750.341 398.323,750.565L398.323,757.477C398.323,757.901 398.319,758.149 398.311,758.221C398.303,758.293 398.279,758.329 398.239,758.329C398.191,758.329 398.135,758.285 398.071,758.197L396.535,755.953C395.647,754.649 394.567,753.021 393.295,751.069L393.307,757.765C393.315,757.869 393.375,757.935 393.487,757.963C393.599,757.991 393.867,758.009 394.291,758.017C394.395,758.017 394.447,758.049 394.447,758.113C394.447,758.193 394.343,758.233 394.135,758.233C394.063,758.233 393.835,758.221 393.451,758.197C393.323,758.189 393.199,758.185 393.079,758.185C393.087,758.185 393.017,758.193 392.869,758.209C392.721,758.225 392.495,758.233 392.191,758.233L392.071,758.233C391.887,758.233 391.795,758.197 391.795,758.125C391.795,758.053 391.875,758.017 392.035,758.017C392.507,758.009 392.781,757.979 392.857,757.927C392.933,757.875 392.971,757.705 392.971,757.417L392.971,751.501C392.971,750.837 392.835,750.421 392.563,750.253C392.435,750.173 392.207,750.133 391.879,750.133C391.671,750.133 391.567,750.093 391.567,750.013C391.567,749.941 391.627,749.905 391.747,749.905C391.907,749.905 392.111,749.909 392.359,749.917C392.607,749.925 392.739,749.929 392.755,749.929C392.779,749.929 392.891,749.925 393.091,749.917C393.355,749.917 393.611,749.913 393.859,749.905L397.999,756.061L397.999,750.721C397.999,750.473 397.995,750.323 397.987,750.271C397.979,750.219 397.947,750.179 397.891,750.151C397.835,750.123 397.643,750.109 397.315,750.109C397.027,750.109 396.883,750.073 396.883,750.001C396.883,749.921 396.979,749.881 397.171,749.881L397.927,749.881C398.055,749.889 398.131,749.893 398.155,749.893C398.163,749.893 398.235,749.889 398.371,749.881L399.103,749.881C399.279,749.881 399.367,749.921 399.367,750.001Z" style="fill-rule:nonzero;"/>
                </g>
            </g>
            <g transform="matrix(2.01813,0,0,2.01813,2283.85,-2289.08)">
                <g transform="matrix(1,0,0,1,-648.706,75.2512)">
                    <path d="M1685.28,2307.23C1685.28,2307.23 1681.21,2316 1684.9,2335.15C1688.97,2356.12 1699.71,2375.2 1715.53,2389.55C1726.59,2399.61 1737.15,2409.53 1752.33,2424.47C1755.73,2427.8 1758.94,2431.31 1761.96,2434.98C1774.15,2449.84 1787.56,2461.15 1806.41,2510.41C1807.4,2513 1808.17,2515.66 1808.71,2518.38C1814.42,2546.2 1831.99,2625.23 1727.22,2686.51C1737.4,2684.57 1820.41,2662.32 1837.48,2548.65C1838.64,2541.01 1838.61,2533.25 1837.39,2525.63C1836.77,2521.7 1835.85,2517.14 1834.54,2512.04C1821.99,2463.52 1789.97,2422.33 1746.06,2398.19C1721.05,2384.45 1692.73,2360.51 1685.28,2307.23Z"/>
                </g>
                <g transform="matrix(1,0,0,1,-222.356,-47.8696)">
                    <path d="M1244.22,2443.53C1244.22,2443.53 1220.84,2481.37 1233.15,2523.72C1233.81,2526.92 1244.83,2558.02 1197.33,2580.33C1196.43,2580.75 1195.71,2581.48 1195.31,2582.39C1193.76,2585.95 1192.58,2593.96 1205.42,2598.1C1207.53,2600.26 1215.85,2607.34 1202.94,2614.97C1202.25,2618.08 1201.17,2622.57 1210.76,2627.01C1209.02,2628.99 1194.25,2638.12 1213.87,2645.67C1214.03,2648.26 1200.09,2678.31 1223.24,2684.44C1225.64,2684.83 1228.13,2687.81 1259.95,2680.39C1264.89,2679.15 1295.61,2673.93 1304.42,2679.08C1307.88,2681.58 1318.17,2695.24 1315.25,2721.94C1314.79,2726.24 1315.1,2758.43 1288.16,2784.77C1290.71,2785.2 1346.45,2758.19 1370.93,2698.06C1372.54,2688.64 1383.16,2665.96 1360.37,2620.73C1347.85,2600.87 1319.6,2563.29 1292.92,2536.03C1274.08,2516.59 1247.89,2495.2 1244.22,2443.53Z"/>
                </g>
                <path d="M1177.81,2545.94C1177.81,2545.94 1232.39,2625.18 1170.35,2705.75C1183.73,2697.13 1246.52,2618.41 1177.81,2545.94Z"/>
                <g transform="matrix(1,0,0,1,3.21332,2.76365)">
                    <path d="M1009.56,2466.83C1009.56,2466.83 1004.16,2470.57 994.673,2471.94C1005.19,2473.8 1016.25,2471.2 1016.25,2471.2L1009.56,2466.83Z"/>
                </g>
            </g>
            <g transform="matrix(2.70448,0,0,2.70448,-3612.1,-4293.71)">
                <path d="M2150.11,2683.32C2151.33,2684.22 2153.04,2684.03 2154.05,2682.91C2155.46,2681.33 2156.71,2679.73 2157.6,2678.53C2158.37,2677.49 2159.06,2676.4 2159.66,2675.26C2161.37,2672.11 2165.6,2664.1 2165.6,2664.1C2168.24,2659.35 2171.24,2653.92 2174.62,2647.8C2178,2641.68 2181.56,2635.42 2185.31,2629.04C2189.05,2622.66 2192.83,2616.35 2196.62,2610.12C2200.42,2603.9 2203.99,2598.28 2207.31,2593.26C2210.63,2588.25 2213.67,2584.08 2216.41,2580.76C2219.16,2577.43 2221.32,2575.46 2222.9,2574.82C2223.11,2574.72 2223.43,2574.66 2223.85,2574.66L2224.96,2574.66C2228.23,2574.66 2231.05,2575.27 2233.43,2576.49C2235.8,2577.7 2236.99,2580.1 2236.99,2583.69C2236.99,2585.27 2236.25,2588.44 2234.78,2593.18C2233.3,2597.93 2231.42,2603.5 2229.16,2609.89C2226.89,2616.27 2224.35,2623.05 2221.56,2630.23C2218.76,2637.4 2216.07,2644.24 2213.48,2650.73C2210.9,2657.22 2208.58,2662.97 2206.52,2667.98C2204.46,2672.99 2203.01,2676.45 2202.17,2678.35C2203.33,2676.45 2205.04,2673.52 2207.31,2669.56C2209.58,2665.61 2212.19,2661.01 2215.15,2655.79C2218.1,2650.57 2221.32,2644.95 2224.8,2638.93C2228.28,2632.92 2231.85,2626.93 2235.49,2620.97C2239.13,2615 2242.72,2609.23 2246.25,2603.63C2249.79,2598.04 2253.11,2593.11 2256.22,2588.83C2259.34,2584.56 2262.13,2581.16 2264.61,2578.62C2267.09,2576.09 2269.07,2574.82 2270.55,2574.82C2274.03,2574.82 2276.8,2575.4 2278.86,2576.56C2280.92,2577.72 2282.39,2579.23 2283.29,2581.08C2284.19,2582.92 2284.56,2585.01 2284.4,2587.33C2284.24,2589.65 2283.64,2591.92 2282.58,2594.14C2282.16,2594.98 2281.29,2596.93 2279.97,2599.99C2278.65,2603.05 2277.07,2606.85 2275.22,2611.39C2273.37,2615.93 2271.32,2620.91 2269.05,2626.35C2266.78,2631.78 2264.53,2637.3 2262.32,2642.89C2260.1,2648.48 2258.02,2653.92 2256.07,2659.2C2254.11,2664.47 2252.5,2669.17 2251.24,2673.28C2249.97,2677.4 2249.1,2680.7 2248.63,2683.18C2248.15,2685.66 2248.28,2686.9 2249.02,2686.9C2252.29,2686.9 2255.62,2685.53 2258.99,2682.78C2262.37,2680.04 2265.62,2676.77 2268.73,2672.97C2271.84,2669.17 2274.64,2665.32 2277.12,2661.41C2279.6,2657.51 2281.53,2654.39 2282.9,2652.07C2283.42,2651.33 2283.82,2650.7 2284.08,2650.17C2284.35,2649.64 2284.59,2649.28 2284.8,2649.06C2285.43,2648.33 2286.12,2647.96 2286.85,2647.96C2287.8,2647.96 2288.62,2648.4 2289.31,2649.3C2289.99,2650.2 2289.97,2651.23 2289.23,2652.39C2288.7,2653.13 2288.2,2653.89 2287.72,2654.68C2287.25,2655.47 2286.75,2656.35 2286.22,2657.3C2284.11,2660.78 2281.71,2664.6 2279.02,2668.77C2276.33,2672.94 2273.32,2676.85 2270,2680.49C2266.67,2684.13 2263.06,2687.19 2259.15,2689.67C2255.25,2692.15 2251.08,2693.39 2246.65,2693.39C2246.22,2693.39 2245.04,2693.31 2243.09,2693.15C2241.13,2692.99 2239.05,2692.44 2236.83,2691.49C2234.62,2690.54 2232.64,2689.01 2230.9,2686.9C2229.16,2684.79 2228.28,2681.83 2228.28,2678.03C2228.28,2675.5 2229.05,2671.73 2230.58,2666.71C2232.11,2661.7 2234.09,2656.08 2236.52,2649.86C2238.94,2643.63 2241.63,2637.16 2244.59,2630.46C2247.54,2623.76 2250.42,2617.48 2253.22,2611.63C2256.01,2605.77 2258.6,2600.65 2260.97,2596.27C2263.35,2591.89 2265.12,2588.96 2266.28,2587.49C2264.38,2589.81 2262.16,2592.92 2259.63,2596.83C2257.09,2600.73 2254.35,2605.08 2251.4,2609.89C2248.44,2614.69 2245.38,2619.8 2242.22,2625.24C2239.05,2630.68 2235.91,2636.11 2232.8,2641.55C2229.68,2646.98 2226.65,2652.26 2223.69,2657.37C2220.74,2662.49 2218.02,2667.16 2215.54,2671.38C2213.06,2675.61 2210.93,2679.19 2209.13,2682.15C2207.34,2685.1 2206.02,2687.11 2205.17,2688.16C2204.01,2689.64 2202.51,2690.88 2200.66,2691.88C2198.82,2692.89 2196.68,2693.39 2194.25,2693.39C2192.77,2693.39 2191.22,2693.15 2189.58,2692.68C2187.95,2692.2 2186.52,2691.43 2185.31,2690.38C2184.09,2689.32 2183.17,2687.87 2182.54,2686.03C2181.9,2684.18 2181.85,2681.94 2182.38,2679.3C2182.8,2676.98 2183.8,2673.34 2185.39,2668.38C2186.97,2663.42 2188.89,2657.82 2191.16,2651.6C2193.43,2645.37 2195.89,2638.88 2198.53,2632.13C2201.16,2625.37 2203.78,2619.04 2206.36,2613.13C2208.95,2607.22 2211.32,2602.1 2213.48,2597.78C2215.61,2593.53 2217.3,2590.71 2218.55,2589.31L2218.63,2589.23C2218.6,2589.26 2218.58,2589.28 2218.55,2589.31C2216.35,2591.74 2213.52,2595.57 2210.08,2600.78C2206.6,2606.06 2202.85,2612.02 2198.84,2618.67C2194.83,2625.32 2190.69,2632.31 2186.41,2639.64C2182.14,2646.98 2178.16,2653.92 2174.46,2660.46C2170.77,2667 2167.5,2672.76 2164.65,2677.72C2161.8,2682.68 2161.63,2682.85 2160.36,2684.86C2159.44,2686.24 2158.33,2688.44 2153.78,2691.96C2153.05,2692.56 2152.07,2692.77 2151.16,2692.53C2149.25,2691.75 2146.24,2690.2 2146.24,2690.2C2140.48,2686.54 2136.2,2682.83 2132.54,2678.22C2128.87,2673.62 2125.99,2668.77 2123.91,2663.68C2121.82,2658.6 2120.45,2653.5 2119.79,2648.4C2119.13,2643.3 2119.01,2638.43 2119.4,2633.79C2119.8,2629.15 2120.58,2624.92 2121.72,2621.11C2122.87,2617.3 2124.25,2614.13 2125.85,2611.6C2128.23,2607.87 2130.62,2605.06 2133.02,2603.18C2135.42,2601.3 2137.66,2600.03 2139.72,2599.35C2141.78,2598.68 2143.66,2598.39 2145.38,2598.48C2147.09,2598.58 2148.48,2598.68 2149.54,2598.79C2150.55,2599 2151.55,2599.43 2152.56,2600.07C2154.28,2601.16 2155.75,2602.64 2156.99,2604.49C2158.22,2606.34 2158.68,2608.08 2158.35,2609.71C2153.52,2610.61 2149.38,2612.66 2145.92,2615.86C2142.47,2619.05 2139.69,2622.92 2137.58,2627.47C2135.47,2632.02 2134.14,2636.99 2133.61,2642.4C2133.08,2647.81 2133.42,2653.13 2134.63,2658.37C2135.84,2663.61 2137.89,2668.57 2140.8,2673.26C2143.23,2677.17 2146.33,2680.53 2150.11,2683.32Z" style="fill-rule:nonzero;"/>
            </g>
        </g>
    </g>
</svg>
